<!-- Generator: Adobe Illustrator 19.2.1, SVG Export Plug-In  -->
<svg version="1.1"
	 xmlns="http://www.w3.org/2000/svg" xmlns:xlink="http://www.w3.org/1999/xlink" xmlns:a="http://ns.adobe.com/AdobeSVGViewerExtensions/3.0/"
	 x="0px" y="0px" width="9.1px" height="36.5px" viewBox="0 0 9.1 36.5" style="enable-background:new 0 0 9.1 36.5;"
	 xml:space="preserve">
<style type="text/css">
	.st0{opacity:0.4;}
	.st1{fill:none;stroke:#FFFFFF;stroke-miterlimit:10;}
	.st2{fill:#FFFFFF;}
	.st3{opacity:0.55;}
	.st4{opacity:0.7;}
	.st5{opacity:0.85;}
</style>
<defs>
</defs>
<g>
	<g class="st0">
		<path class="st1" d="M4.5,1.5"/>
		<g>
			<path class="st2" d="M4.5,1.6C3.5,0.5,1.4,0,0,0c1.9,1.4,3.6,3.3,4.5,5.5c0.9-2.3,2.7-4,4.5-5.5C7.6,0.1,5.7,0.5,4.5,1.6z"/>
		</g>
	</g>
	<g class="st3">
		<path class="st1" d="M4.5,9.3"/>
		<path class="st2" d="M4.5,9.3c-1-1-3.1-1.5-4.5-1.6c1.9,1.4,3.6,3.3,4.5,5.5c0.9-2.3,2.7-4,4.5-5.5C7.6,7.9,5.7,8.2,4.5,9.3z"/>
	</g>
	<g class="st4">
		<path class="st1" d="M4.5,17"/>
		<path class="st2" d="M4.5,17.1c-1-1-3.1-1.5-4.5-1.6c1.9,1.4,3.6,3.3,4.5,5.5c0.9-2.3,2.7-4,4.5-5.5C7.6,15.6,5.7,16,4.5,17.1z"/>
	</g>
	<g class="st5">
		<path class="st1" d="M4.5,24.8"/>
		<path class="st2" d="M4.5,24.8c-1-1-3.1-1.5-4.5-1.6c1.9,1.4,3.6,3.3,4.5,5.5c0.9-2.3,2.7-4,4.5-5.5C7.6,23.4,5.7,23.7,4.5,24.8z"
			/>
	</g>
	<g>
		<path class="st1" d="M4.5,32.5"/>
		<g>
			<path class="st2" d="M4.5,32.6c-1-1-3.1-1.5-4.5-1.6c1.9,1.4,3.6,3.3,4.5,5.5c0.9-2.3,2.7-4,4.5-5.5C7.6,31.1,5.7,31.5,4.5,32.6z
				"/>
		</g>
	</g>
</g>
</svg>
