<?xml version="1.0" encoding="utf-8"?>
<!-- Generator: Adobe Illustrator 19.2.1, SVG Export Plug-In . SVG Version: 6.00 Build 0)  -->
<svg version="1.1" id="Capa_1" xmlns="http://www.w3.org/2000/svg" xmlns:xlink="http://www.w3.org/1999/xlink" x="0px" y="0px"
	 viewBox="0 0 3 205" style="enable-background:new 0 0 3 205;" xml:space="preserve">
<style type="text/css">
	.st0{fill:#00FFFF;}
</style>
<rect y="50" class="st0" width="3" height="5"/>
<rect y="40" class="st0" width="3" height="5"/>
<rect y="30" class="st0" width="3" height="5"/>
<rect y="20" class="st0" width="3" height="5"/>
<rect y="10" class="st0" width="3" height="5"/>
<rect class="st0" width="3" height="5"/>
<rect y="100" class="st0" width="3" height="5"/>
<rect y="90" class="st0" width="3" height="5"/>
<rect y="80" class="st0" width="3" height="5"/>
<rect y="70" class="st0" width="3" height="5"/>
<rect y="60" class="st0" width="3" height="5"/>
<rect y="150" class="st0" width="3" height="5"/>
<rect y="140" class="st0" width="3" height="5"/>
<rect y="130" class="st0" width="3" height="5"/>
<rect y="120" class="st0" width="3" height="5"/>
<rect y="110" class="st0" width="3" height="5"/>
<rect y="200" class="st0" width="3" height="5"/>
<rect y="190" class="st0" width="3" height="5"/>
<rect y="180" class="st0" width="3" height="5"/>
<rect y="170" class="st0" width="3" height="5"/>
<rect y="160" class="st0" width="3" height="5"/>
</svg>
