<?xml version="1.0" encoding="utf-8"?>
<!-- Generator: Adobe Illustrator 19.2.1, SVG Export Plug-In . SVG Version: 6.00 Build 0)  -->
<svg version="1.1" id="Capa_1" xmlns="http://www.w3.org/2000/svg" xmlns:xlink="http://www.w3.org/1999/xlink" x="0px" y="0px"
	 viewBox="0 0 79.1 81.2" style="enable-background:new 0 0 79.1 81.2;" xml:space="preserve">
<style type="text/css">
	.st0{fill:none;stroke:#FF5A00;stroke-miterlimit:10;}
	.st1{fill:#707070;}
	.st2{fill:#666666;}
	.st3{fill:#F8F8F6;}
	.st4{fill:none;stroke:#F8F8F6;stroke-width:3;stroke-miterlimit:10;}
	.st5{fill:#FFFFFF;stroke:#FFFFFF;stroke-width:4;stroke-miterlimit:10;}
</style>
<path class="st0" d="M-5,91"/>
<g>
	<g>
		<path class="st1" d="M16.7,33C20,23,28.9,16.7,39.5,16.7S59,23,62.3,33h7.5c-0.2-1-0.4-1.6-0.7-2.4l5-4.3l-2-4.3l-6.5,1.3
			c-0.8-1.2-1.7-2.4-2.7-3.5l2.9-5.9l-3.6-3.1l-5.4,3.7c-1.1-0.7-2.3-1.4-3.5-2L53.8,6l-4.5-1.5L45.7,10c-1.4-0.3-2.9-0.5-4.4-0.6
			l-2.1-6.2l-4.7,0.3l-1.2,6.4c-1.3,0.3-2.6,0.6-3.9,1l-4.3-5L20.9,8l1.3,6.5c-1.2,0.8-2.4,1.7-3.5,2.7l-5.9-2.9l-3.1,3.6l3.7,5.4
			c-0.7,1.1-1.4,2.3-2,3.5L5,26.3l-1.5,4.6l3.2,2.2L16.7,33L16.7,33z"/>
		<path class="st1" d="M62.3,48c-3.2,10-12.2,16.3-22.8,16.3C28.9,64.4,20,58,16.7,48H9.2c0.2,1,0.4,1.7,0.7,2.5l-5,4.4L7,59.2
			l6.5-1.3c0.8,1.2,1.7,2.4,2.7,3.5l-2.9,5.9l3.6,3.1l5.4-3.7c1.1,0.7,2.3,1.4,3.5,2l-0.5,6.5l4.5,1.5l3.6-5.5
			c1.4,0.3,2.9,0.5,4.4,0.6l2.1,6.2l4.7-0.3l1.2-6.4c1.3-0.3,2.6-0.6,3.9-1l4.3,5l4.3-2.1L57,66.7c1.2-0.8,2.4-1.7,3.5-2.7l5.9,2.9
			l3.1-3.6l-4-5.3c0.7-1.1,1.4-2.3,2-3.5L74,55l1.5-4.7L72.4,48H62.3z"/>
		<path class="st1" d="M38.8,28.7c-6.8,0-12.4,5.6-12.4,12.4s5.5,12.4,12.4,12.4c6.8,0,12.4-5.6,12.4-12.4
			C51.1,34.3,45.6,28.7,38.8,28.7 M38.8,46.6c-3,0-5.5-2.5-5.5-5.5s2.5-5.5,5.5-5.5s5.5,2.5,5.5,5.5C44.3,44.2,41.8,46.6,38.8,46.6"
			/>
	</g>
	<g>
		<path class="st2" d="M16.7,33C20,23,28.9,16.7,39.5,16.7S59,23,62.3,33h7.5c-0.2-1-0.4-1.6-0.7-2.4l5-4.3l-2-4.3l-6.5,1.3
			c-0.8-1.2-1.7-2.4-2.7-3.5l2.9-5.9l-3.6-3.1l-5.4,3.7c-1.1-0.7-2.3-1.4-3.5-2L53.8,6l-4.5-1.5L45.7,10c-1.4-0.3-2.9-0.5-4.4-0.6
			l-2.1-6.2l-4.7,0.3l-1.2,6.4c-1.3,0.3-2.6,0.6-3.9,1l-4.3-5L20.9,8l1.3,6.5c-1.2,0.8-2.4,1.7-3.5,2.7l-5.9-2.9l-3.1,3.6l3.7,5.4
			c-0.7,1.1-1.4,2.3-2,3.5L5,26.3l-1.5,4.6l3.2,2.2L16.7,33L16.7,33z"/>
		<path class="st2" d="M62.3,48c-3.2,10-12.2,16.3-22.8,16.3C28.9,64.4,20,58,16.7,48H9.2c0.2,1,0.4,1.7,0.7,2.5l-5,4.4L7,59.2
			l6.5-1.3c0.8,1.2,1.7,2.4,2.7,3.5l-2.9,5.9l3.6,3.1l5.4-3.7c1.1,0.7,2.3,1.4,3.5,2l-0.5,6.5l4.5,1.5l3.6-5.5
			c1.4,0.3,2.9,0.5,4.4,0.6l2.1,6.2l4.7-0.3l1.2-6.4c1.3-0.3,2.6-0.6,3.9-1l4.3,5l4.3-2.1L57,66.7c1.2-0.8,2.4-1.7,3.5-2.7l5.9,2.9
			l3.1-3.6l-4-5.3c0.7-1.1,1.4-2.3,2-3.5L74,55l1.5-4.7L72.4,48H62.3z"/>
		<path class="st1" d="M38.8,28.7c-6.8,0-12.4,5.6-12.4,12.4s5.5,12.4,12.4,12.4c6.8,0,12.4-5.6,12.4-12.4
			C51.1,34.3,45.6,28.7,38.8,28.7 M38.8,46.6c-3,0-5.5-2.5-5.5-5.5s2.5-5.5,5.5-5.5s5.5,2.5,5.5,5.5C44.3,44.2,41.8,46.6,38.8,46.6"
			/>
	</g>
	<g>
		<path class="st3" d="M39.3,3.2l2.1,6.2c1.5,0.1,2.9,0.3,4.4,0.6l3.6-5.5L53.8,6l-0.5,6.5c1.2,0.6,2.3,1.3,3.5,2l5.4-3.7l3.6,3.1
			l-2.9,5.9c1,1.1,1.9,2.3,2.7,3.5l6.5-1.3l2.1,4.3l-5,4.3c0.3,0.8,0.5,1.4,0.7,2.4h-7.5c-3.2-10-12.2-16.3-22.8-16.3
			C28.9,16.7,20,23,16.7,33H6.6l-3.2-2.2l1.5-4.6l6.5,0.5c0.6-1.2,1.3-2.4,2-3.5l-3.7-5.4l3.1-3.6l5.9,2.9c1.1-1,2.3-1.9,3.5-2.7
			L20.9,8l4.3-2.1l4.3,5c1.3-0.4,2.6-0.8,3.9-1l1.2-6.4L39.3,3.2 M41.4,0l-2.3,0.2l-4.7,0.3L32,0.7L31.6,3l-0.8,4.5
			c-0.1,0-0.2,0-0.3,0.1l-3-3.5L26,2.3l-2.1,1l-4.3,2.1l-2.1,1L18,8.6l0.9,4.6c-0.2,0.1-0.4,0.3-0.6,0.4l-4.1-2l-2.1-1l-1.5,1.8
			L7.5,16L6,17.7l1.3,1.9l2.6,3.8c0,0.1-0.1,0.2-0.1,0.3l-4.6-0.3l-2.3-0.2l-0.7,2.2L0.7,30L0,32.2l1.9,1.3l3.2,2.2l0.8,0.5h0.9H17
			h2.2l0.7-2.1c2.8-8.7,10.6-14.3,19.9-14.3s17.1,5.6,19.9,14.3l0.7,2.1h2.2h7.5h3.6L73,32.6c-0.1-0.3-0.1-0.6-0.2-0.8l3.6-3.1
			l1.7-1.5l-1-2.1L75,20.8l-1-2.1l-2.3,0.5L66.9,20c-0.1-0.2-0.3-0.4-0.4-0.6l2-4.1l1-2.1l-1.7-1.5l-3.6-3.1l-1.8-1.5l-1.9,1.3
			L56.7,11c-0.1,0-0.2-0.1-0.2-0.1l0.3-4.6L57,3.9l-2.2-0.8l-4.5-1.5l-2.2-0.8l-1.3,1.9l-2.5,3.8c-0.2,0-0.5-0.1-0.7-0.1L42.1,2
			L41.4,0L41.4,0z"/>
		<path class="st3" d="M72.4,48l3.2,2.3L74.1,55l-6.5-0.5c-0.6,1.2-1.2,2.4-2,3.5l3.7,5.4L66.1,67l-5.9-2.9c-1.1,1-2.3,1.9-3.5,2.7
			l1.3,6.5l-4.3,2.1l-4.3-5c-1.3,0.4-2.6,0.8-3.9,1l-1.2,6.4l-4.7,0.3l-2.1-6.2c-1.5-0.1-2.9-0.3-4.4-0.6l-3.6,5.5L25,75.3l0.5-6.5
			c-1.2-0.6-2.3-1.3-3.5-2l-5.4,3.7L13,67.4l2.9-5.9c-1-1.1-1.9-2.3-2.7-3.5L7,59.3L4.9,55l5-4.4c-0.3-0.8-0.5-1.5-0.7-2.5h7.5
			C20,58,28.9,64.4,39.5,64.4S59,58.1,62.3,48.1h10.1 M73.4,45h-1H62.3h-2.2l-0.7,2.1c-2.8,8.7-10.6,14.3-19.9,14.3
			s-17.1-5.6-19.9-14.3L18.9,45h-2.2H9.2H5.6l0.7,3.6c0.1,0.3,0.1,0.6,0.2,0.9l-3.6,3.1l-1.7,1.5l1,2.1l2.1,4.3l1,2.1l2.3-0.5
			l4.6-0.9c0.1,0.2,0.3,0.4,0.5,0.6l-2,4.1l-1,2.1l1.7,1.5l3.6,3.1l1.8,1.5l1.9-1.3l3.8-2.6c0.1,0,0.2,0.1,0.2,0.1l-0.3,4.6L22,77.4
			l2.2,0.8l4.5,1.5l2.2,0.8l1.3-1.9l2.5-3.8c0.2,0,0.5,0.1,0.7,0.1l1.5,4.4l0.7,2.2l2.3-0.2l4.7-0.3l2.3-0.2l0.4-2.3l0.8-4.5
			c0.1,0,0.2,0,0.3-0.1l3,3.5l1.5,1.8l2.1-1l4.3-2.1l2.1-1l-0.5-2.3L60,68.2c0.2-0.1,0.4-0.3,0.6-0.4l4.1,2l2.1,1l1.5-1.8l3.1-3.6
			l1.5-1.7l-1.3-1.9L69,58c0-0.1,0.1-0.2,0.1-0.3l4.6,0.3l2.3,0.2l0.7-2.2l1.5-4.7l0.7-2.1l-1.8-1.3l-3.2-2.3L73.4,45L73.4,45z"/>
		<path class="st4" d="M38.8,28.7c-6.8,0-12.4,5.6-12.4,12.4s5.5,12.4,12.4,12.4c6.8,0,12.4-5.6,12.4-12.4
			C51.1,34.3,45.6,28.7,38.8,28.7 M38.8,46.6c-3,0-5.5-2.5-5.5-5.5s2.5-5.5,5.5-5.5s5.5,2.5,5.5,5.5C44.3,44.2,41.8,46.6,38.8,46.6"
			/>
	</g>
</g>
<g>
	<g>
		<path class="st5" d="M5.7,35.7c-0.6,0-1.1,0.4-1.4,1.1c-0.3,0.7-0.5,1.7-0.5,2.9c0,2.6,0.7,3.9,2,3.9c0.6,0,1.2-0.2,1.9-0.6v1.9
			c-0.6,0.4-1.3,0.5-2.1,0.5c-1.3,0-2.3-0.5-2.9-1.5c-0.7-1-1-2.4-1-4.3c0-1.8,0.4-3.3,1.1-4.3s1.7-1.5,2.9-1.5
			c0.4,0,0.8,0.1,1.2,0.2c0.4,0.1,0.8,0.3,1.2,0.6l-0.7,1.7c-0.2-0.2-0.5-0.3-0.7-0.4S6.1,35.7,5.7,35.7z"/>
		<path class="st5" d="M13,45.3l-0.4-1.2l0,0c-0.3,0.5-0.6,0.9-0.9,1c-0.3,0.2-0.7,0.3-1.2,0.3c-0.6,0-1.1-0.2-1.5-0.7
			s-0.5-1.1-0.5-2s0.2-1.6,0.7-2s1.2-0.7,2.2-0.7h1.1v-0.6c0-0.8-0.3-1.2-1-1.2c-0.5,0-1.1,0.2-1.8,0.6L9,37.4
			c0.9-0.5,1.8-0.8,2.8-0.8c0.9,0,1.6,0.3,2.1,0.8s0.7,1.3,0.7,2.2v5.8L13,45.3L13,45.3z M11.2,43.9c0.4,0,0.7-0.2,0.9-0.5
			c0.2-0.3,0.3-0.8,0.3-1.3v-0.7h-0.6c-0.5,0-0.8,0.2-1,0.4s-0.3,0.6-0.3,1.1C10.5,43.5,10.7,43.9,11.2,43.9z"/>
		<path class="st5" d="M20.4,42.8c0,0.8-0.2,1.5-0.7,2s-1.2,0.7-2.2,0.7c-0.9,0-1.6-0.2-2.1-0.5v-1.8c0.3,0.2,0.6,0.4,1,0.5
			c0.4,0.1,0.7,0.2,1,0.2s0.6-0.1,0.7-0.2c0.2-0.2,0.3-0.4,0.3-0.6c0-0.3-0.1-0.5-0.3-0.7c-0.2-0.2-0.5-0.4-1-0.7
			c-0.6-0.4-1.1-0.8-1.3-1.2s-0.4-0.9-0.4-1.5c0-0.7,0.3-1.3,0.8-1.7c0.5-0.4,1.2-0.6,2.1-0.6c0.8,0,1.5,0.2,2.2,0.6l-0.7,1.5
			c-0.6-0.3-1-0.4-1.5-0.4c-0.3,0-0.5,0.1-0.6,0.2c-0.1,0.1-0.2,0.3-0.2,0.5s0.1,0.4,0.2,0.6c0.2,0.2,0.5,0.4,0.9,0.7
			c0.5,0.3,0.9,0.6,1.1,0.8s0.4,0.5,0.5,0.8C20.3,42.3,20.4,42.4,20.4,42.8z"/>
		<path class="st5" d="M27.7,41c0,1.4-0.3,2.5-0.9,3.3c-0.6,0.8-1.4,1.2-2.5,1.2c-0.7,0-1.2-0.2-1.7-0.5c-0.5-0.4-0.9-0.9-1.2-1.6
			C21.2,42.7,21,41.9,21,41c0-1.4,0.3-2.5,0.9-3.3c0.6-0.8,1.4-1.2,2.5-1.2c1,0,1.8,0.4,2.4,1.2C27.4,38.5,27.7,39.6,27.7,41z
			 M23.1,41c0,0.9,0.1,1.6,0.3,2c0.2,0.5,0.5,0.7,0.9,0.7c0.8,0,1.2-0.9,1.2-2.7c0-0.9-0.1-1.6-0.3-2s-0.5-0.7-0.9-0.7
			c-0.4,0-0.7,0.2-0.9,0.7C23.2,39.5,23.1,40.1,23.1,41z"/>
		<path class="st5" d="M38.6,37.5c0,1.2-0.3,2.1-0.9,2.8s-1.5,1-2.6,1h-0.5v4.1h-2.1V34h2.9C37.5,34,38.6,35.2,38.6,37.5z
			 M34.5,39.4h0.4c0.5,0,0.9-0.1,1.2-0.4c0.3-0.3,0.4-0.7,0.4-1.4c0-0.6-0.1-1-0.3-1.3s-0.6-0.4-1.1-0.4h-0.5v3.5H34.5z"/>
		<path class="st5" d="M43.1,36.5c0.3,0,0.5,0,0.7,0.1l-0.2,2c-0.1-0.1-0.3-0.1-0.6-0.1c-0.5,0-0.9,0.2-1.2,0.6
			c-0.3,0.4-0.4,1-0.4,1.7v4.4h-2.1v-8.6H41l0.2,1.3h0.1c0.2-0.5,0.5-0.9,0.7-1.2S42.8,36.5,43.1,36.5z"/>
		<path class="st5" d="M48.6,45.3l-0.4-1.2l0,0c-0.3,0.5-0.6,0.9-0.9,1c-0.3,0.2-0.7,0.3-1.2,0.3c-0.6,0-1.1-0.2-1.5-0.7
			s-0.5-1.1-0.5-2s0.2-1.6,0.7-2S46,40,47,40h1.1v-0.6c0-0.8-0.3-1.2-1-1.2c-0.5,0-1.1,0.2-1.8,0.6l-0.7-1.4
			c0.9-0.5,1.8-0.8,2.8-0.8c0.9,0,1.6,0.3,2.1,0.8s0.7,1.3,0.7,2.2v5.8L48.6,45.3L48.6,45.3z M46.8,43.9c0.4,0,0.7-0.2,0.9-0.5
			s0.3-0.8,0.3-1.3v-0.7h-0.6c-0.5,0-0.8,0.2-1,0.4s-0.3,0.6-0.3,1.1C46.1,43.5,46.3,43.9,46.8,43.9z M46.3,35.7v-0.2
			c0.2-0.3,0.5-0.7,0.7-1.2c0.3-0.5,0.5-0.9,0.6-1.2h2.5v0.2c-0.1,0.2-0.4,0.6-0.9,1.1s-1,0.9-1.4,1.3
			C47.8,35.7,46.3,35.7,46.3,35.7z"/>
		<path class="st5" d="M54.2,45.5c-1,0-1.8-0.4-2.3-1.1c-0.5-0.7-0.8-1.8-0.8-3.3s0.3-2.6,0.8-3.4c0.5-0.7,1.3-1.1,2.4-1.1
			c0.3,0,0.7,0,1,0.1s0.7,0.2,0.9,0.4l-0.6,1.6c-0.4-0.3-0.8-0.4-1.1-0.4c-0.4,0-0.8,0.2-0.9,0.7c-0.2,0.5-0.3,1.1-0.3,2.1
			c0,0.9,0.1,1.6,0.3,2s0.5,0.7,0.9,0.7c0.5,0,1.1-0.2,1.6-0.5V45C55.5,45.3,54.9,45.5,54.2,45.5z"/>
		<path class="st5" d="M59.9,43.7c0.3,0,0.6-0.1,0.9-0.2v1.6c-0.3,0.2-0.8,0.3-1.5,0.3c-0.7,0-1.3-0.2-1.7-0.7
			c-0.4-0.4-0.5-1.1-0.5-2v-4.5h-0.8v-0.9l1.1-0.7l0.5-1.8h1.3v1.9h1.6v1.6h-1.6v4.5C59.2,43.4,59.4,43.7,59.9,43.7z"/>
		<path class="st5" d="M61.5,34.4c0-0.3,0.1-0.6,0.3-0.8c0.2-0.2,0.5-0.3,0.8-0.3s0.6,0.1,0.8,0.3c0.2,0.2,0.3,0.5,0.3,0.8
			c0,0.4-0.1,0.6-0.3,0.8c-0.2,0.2-0.5,0.3-0.8,0.3s-0.6-0.1-0.8-0.3C61.6,35.1,61.5,34.8,61.5,34.4z M63.7,45.3h-2.1v-8.6h2.1V45.3
			z"/>
		<path class="st5" d="M67.9,45.5c-1,0-1.8-0.4-2.3-1.1c-0.5-0.7-0.8-1.8-0.8-3.3s0.3-2.6,0.8-3.4c0.5-0.7,1.3-1.1,2.4-1.1
			c0.3,0,0.7,0,1,0.1s0.7,0.2,0.9,0.4l-0.6,1.6c-0.4-0.3-0.8-0.4-1.1-0.4c-0.4,0-0.8,0.2-0.9,0.7c-0.2,0.5-0.3,1.1-0.3,2.1
			c0,0.9,0.1,1.6,0.3,2c0.2,0.4,0.5,0.7,0.9,0.7c0.5,0,1.1-0.2,1.6-0.5V45C69.1,45.3,68.5,45.5,67.9,45.5z"/>
		<path class="st5" d="M76.9,41c0,1.4-0.3,2.5-0.9,3.3s-1.4,1.2-2.5,1.2c-0.7,0-1.2-0.2-1.7-0.5c-0.5-0.4-0.9-0.9-1.2-1.6
			c-0.3-0.7-0.4-1.5-0.4-2.4c0-1.4,0.3-2.5,0.9-3.3s1.4-1.2,2.5-1.2c1,0,1.8,0.4,2.4,1.2C76.6,38.5,76.9,39.6,76.9,41z M72.3,41
			c0,0.9,0.1,1.6,0.3,2c0.2,0.5,0.5,0.7,0.9,0.7c0.8,0,1.2-0.9,1.2-2.7c0-0.9-0.1-1.6-0.3-2c-0.2-0.4-0.5-0.7-0.9-0.7
			s-0.7,0.2-0.9,0.7S72.3,40.1,72.3,41z"/>
	</g>
</g>
<g>
	<g>
		<path class="st1" d="M5.7,35.7c-0.6,0-1.1,0.4-1.4,1.1c-0.3,0.7-0.5,1.7-0.5,2.9c0,2.6,0.7,3.9,2,3.9c0.6,0,1.2-0.2,1.9-0.6v1.9
			c-0.6,0.4-1.3,0.5-2.1,0.5c-1.3,0-2.3-0.5-2.9-1.5c-0.7-1-1-2.4-1-4.3c0-1.8,0.4-3.3,1.1-4.3s1.7-1.5,2.9-1.5
			c0.4,0,0.8,0.1,1.2,0.2c0.4,0.1,0.8,0.3,1.2,0.6l-0.7,1.7c-0.2-0.2-0.5-0.3-0.7-0.4S6.1,35.7,5.7,35.7z"/>
		<path class="st1" d="M13,45.3l-0.4-1.2l0,0c-0.3,0.5-0.6,0.9-0.9,1c-0.3,0.2-0.7,0.3-1.2,0.3c-0.6,0-1.1-0.2-1.5-0.7
			s-0.5-1.1-0.5-2s0.2-1.6,0.7-2s1.2-0.7,2.2-0.7h1.1v-0.6c0-0.8-0.3-1.2-1-1.2c-0.5,0-1.1,0.2-1.8,0.6L9,37.4
			c0.9-0.5,1.8-0.8,2.8-0.8c0.9,0,1.6,0.3,2.1,0.8s0.7,1.3,0.7,2.2v5.8L13,45.3L13,45.3z M11.2,43.9c0.4,0,0.7-0.2,0.9-0.5
			c0.2-0.3,0.3-0.8,0.3-1.3v-0.7h-0.6c-0.5,0-0.8,0.2-1,0.4s-0.3,0.6-0.3,1.1C10.5,43.5,10.7,43.9,11.2,43.9z"/>
		<path class="st1" d="M20.4,42.8c0,0.8-0.2,1.5-0.7,2s-1.2,0.7-2.2,0.7c-0.9,0-1.6-0.2-2.1-0.5v-1.8c0.3,0.2,0.6,0.4,1,0.5
			c0.4,0.1,0.7,0.2,1,0.2s0.6-0.1,0.7-0.2c0.2-0.2,0.3-0.4,0.3-0.6c0-0.3-0.1-0.5-0.3-0.7c-0.2-0.2-0.5-0.4-1-0.7
			c-0.6-0.4-1.1-0.8-1.3-1.2s-0.4-0.9-0.4-1.5c0-0.7,0.3-1.3,0.8-1.7c0.5-0.4,1.2-0.6,2.1-0.6c0.8,0,1.5,0.2,2.2,0.6l-0.7,1.5
			c-0.6-0.3-1-0.4-1.5-0.4c-0.3,0-0.5,0.1-0.6,0.2c-0.1,0.1-0.2,0.3-0.2,0.5s0.1,0.4,0.2,0.6c0.2,0.2,0.5,0.4,0.9,0.7
			c0.5,0.3,0.9,0.6,1.1,0.8s0.4,0.5,0.5,0.8C20.3,42.3,20.4,42.4,20.4,42.8z"/>
		<path class="st1" d="M27.7,41c0,1.4-0.3,2.5-0.9,3.3c-0.6,0.8-1.4,1.2-2.5,1.2c-0.7,0-1.2-0.2-1.7-0.5c-0.5-0.4-0.9-0.9-1.2-1.6
			C21.2,42.7,21,41.9,21,41c0-1.4,0.3-2.5,0.9-3.3c0.6-0.8,1.4-1.2,2.5-1.2c1,0,1.8,0.4,2.4,1.2C27.4,38.5,27.7,39.6,27.7,41z
			 M23.1,41c0,0.9,0.1,1.6,0.3,2c0.2,0.5,0.5,0.7,0.9,0.7c0.8,0,1.2-0.9,1.2-2.7c0-0.9-0.1-1.6-0.3-2s-0.5-0.7-0.9-0.7
			c-0.4,0-0.7,0.2-0.9,0.7C23.2,39.5,23.1,40.1,23.1,41z"/>
		<path class="st1" d="M38.6,37.5c0,1.2-0.3,2.1-0.9,2.8s-1.5,1-2.6,1h-0.5v4.1h-2.1V34h2.9C37.5,34,38.6,35.2,38.6,37.5z
			 M34.5,39.4h0.4c0.5,0,0.9-0.1,1.2-0.4c0.3-0.3,0.4-0.7,0.4-1.4c0-0.6-0.1-1-0.3-1.3s-0.6-0.4-1.1-0.4h-0.5v3.5H34.5z"/>
		<path class="st1" d="M43.1,36.5c0.3,0,0.5,0,0.7,0.1l-0.2,2c-0.1-0.1-0.3-0.1-0.6-0.1c-0.5,0-0.9,0.2-1.2,0.6
			c-0.3,0.4-0.4,1-0.4,1.7v4.4h-2.1v-8.6H41l0.2,1.3h0.1c0.2-0.5,0.5-0.9,0.7-1.2S42.8,36.5,43.1,36.5z"/>
		<path class="st1" d="M48.6,45.3l-0.4-1.2l0,0c-0.3,0.5-0.6,0.9-0.9,1c-0.3,0.2-0.7,0.3-1.2,0.3c-0.6,0-1.1-0.2-1.5-0.7
			s-0.5-1.1-0.5-2s0.2-1.6,0.7-2S46,40,47,40h1.1v-0.6c0-0.8-0.3-1.2-1-1.2c-0.5,0-1.1,0.2-1.8,0.6l-0.7-1.4
			c0.9-0.5,1.8-0.8,2.8-0.8c0.9,0,1.6,0.3,2.1,0.8s0.7,1.3,0.7,2.2v5.8L48.6,45.3L48.6,45.3z M46.8,43.9c0.4,0,0.7-0.2,0.9-0.5
			s0.3-0.8,0.3-1.3v-0.7h-0.6c-0.5,0-0.8,0.2-1,0.4s-0.3,0.6-0.3,1.1C46.1,43.5,46.3,43.9,46.8,43.9z M46.3,35.7v-0.2
			c0.2-0.3,0.5-0.7,0.7-1.2c0.3-0.5,0.5-0.9,0.6-1.2h2.5v0.2c-0.1,0.2-0.4,0.6-0.9,1.1s-1,0.9-1.4,1.3
			C47.8,35.7,46.3,35.7,46.3,35.7z"/>
		<path class="st1" d="M54.2,45.5c-1,0-1.8-0.4-2.3-1.1c-0.5-0.7-0.8-1.8-0.8-3.3s0.3-2.6,0.8-3.4c0.5-0.7,1.3-1.1,2.4-1.1
			c0.3,0,0.7,0,1,0.1s0.7,0.2,0.9,0.4l-0.6,1.6c-0.4-0.3-0.8-0.4-1.1-0.4c-0.4,0-0.8,0.2-0.9,0.7c-0.2,0.5-0.3,1.1-0.3,2.1
			c0,0.9,0.1,1.6,0.3,2s0.5,0.7,0.9,0.7c0.5,0,1.1-0.2,1.6-0.5V45C55.5,45.3,54.9,45.5,54.2,45.5z"/>
		<path class="st1" d="M59.9,43.7c0.3,0,0.6-0.1,0.9-0.2v1.6c-0.3,0.2-0.8,0.3-1.5,0.3c-0.7,0-1.3-0.2-1.7-0.7
			c-0.4-0.4-0.5-1.1-0.5-2v-4.5h-0.8v-0.9l1.1-0.7l0.5-1.8h1.3v1.9h1.6v1.6h-1.6v4.5C59.2,43.4,59.4,43.7,59.9,43.7z"/>
		<path class="st1" d="M61.5,34.4c0-0.3,0.1-0.6,0.3-0.8c0.2-0.2,0.5-0.3,0.8-0.3s0.6,0.1,0.8,0.3c0.2,0.2,0.3,0.5,0.3,0.8
			c0,0.4-0.1,0.6-0.3,0.8c-0.2,0.2-0.5,0.3-0.8,0.3s-0.6-0.1-0.8-0.3C61.6,35.1,61.5,34.8,61.5,34.4z M63.7,45.3h-2.1v-8.6h2.1V45.3
			z"/>
		<path class="st1" d="M67.9,45.5c-1,0-1.8-0.4-2.3-1.1c-0.5-0.7-0.8-1.8-0.8-3.3s0.3-2.6,0.8-3.4c0.5-0.7,1.3-1.1,2.4-1.1
			c0.3,0,0.7,0,1,0.1s0.7,0.2,0.9,0.4l-0.6,1.6c-0.4-0.3-0.8-0.4-1.1-0.4c-0.4,0-0.8,0.2-0.9,0.7c-0.2,0.5-0.3,1.1-0.3,2.1
			c0,0.9,0.1,1.6,0.3,2c0.2,0.4,0.5,0.7,0.9,0.7c0.5,0,1.1-0.2,1.6-0.5V45C69.1,45.3,68.5,45.5,67.9,45.5z"/>
		<path class="st1" d="M76.9,41c0,1.4-0.3,2.5-0.9,3.3s-1.4,1.2-2.5,1.2c-0.7,0-1.2-0.2-1.7-0.5c-0.5-0.4-0.9-0.9-1.2-1.6
			c-0.3-0.7-0.4-1.5-0.4-2.4c0-1.4,0.3-2.5,0.9-3.3s1.4-1.2,2.5-1.2c1,0,1.8,0.4,2.4,1.2C76.6,38.5,76.9,39.6,76.9,41z M72.3,41
			c0,0.9,0.1,1.6,0.3,2c0.2,0.5,0.5,0.7,0.9,0.7c0.8,0,1.2-0.9,1.2-2.7c0-0.9-0.1-1.6-0.3-2c-0.2-0.4-0.5-0.7-0.9-0.7
			s-0.7,0.2-0.9,0.7S72.3,40.1,72.3,41z"/>
	</g>
</g>
</svg>
