<?xml version="1.0" encoding="utf-8"?>
<!-- Generator: Adobe Illustrator 19.2.1, SVG Export Plug-In . SVG Version: 6.00 Build 0)  -->
<svg version="1.1" id="Capa_1" xmlns="http://www.w3.org/2000/svg" xmlns:xlink="http://www.w3.org/1999/xlink" x="0px" y="0px"
	 viewBox="0 0 33.9 35.9" style="enable-background:new 0 0 33.9 35.9;" xml:space="preserve">
<style type="text/css">
	.st0{fill:#FFFFFF;}
</style>
<path class="st0" d="M5.6,7.6c-1.9,1.9-3.3,4.3-4,6.9c0,0.2,0,0.4,0.1,0.6s0.3,0.3,0.6,0.3h7.1c0.4,0,0.7-0.3,0.7-0.7v-3.5
	c0-0.3,0.2-0.6,0.4-0.8c0.3-0.2,0.6-0.2,0.9,0l12.4,7.2c0.3,0.2,0.4,0.4,0.4,0.8c0,0.4-0.2,0.6-0.4,0.8l-12.4,7.1
	c-0.3,0.2-0.6,0.2-0.9,0s-0.4-0.4-0.4-0.8V22c0-0.4-0.3-0.7-0.7-0.7H2.3c-0.2,0-0.4,0.1-0.6,0.3S1.6,22,1.6,22.2
	c0.7,2.6,2.1,5,4,6.9c2.9,2.9,6.7,4.5,10.8,4.5s7.9-1.6,10.8-4.5s4.5-6.7,4.5-10.8s-1.6-7.9-4.5-10.8c-2.9-2.8-6.8-4.4-10.8-4.4
	C12.3,3.1,8.5,4.7,5.6,7.6L5.6,7.6z"/>
</svg>
